<svg xmlns="http://www.w3.org/2000/svg" width="539.5" height="539.5" fill="white" xml:space="preserve"><path d="M500.062 30.3c-1.154.144-2.383.288-3.687.442-25.802 3.047-79.493 9.388-134.869 64.764l-19.655 19.655-92.996-1.227-41.467 41.468 64.473 29.749-61.614 61.614-69.114-25.108-31.571 31.57 59.979 34.245-16.395 16.395-98.508 1.383 178.839 178.834 1.381-98.504 16.395-16.395 34.245 59.979 31.571-31.572-25.108-69.113 61.613-61.614 29.75 64.471 41.468-41.467-1.226-92.996 19.655-19.654c55.371-55.372 61.715-109.061 64.764-134.861.154-1.304.3-2.536.443-3.691l1.184-9.549-9.55 1.182zM399.46 82.606l56.66 56.66c-3.1 4.25-6.473 8.541-10.142 12.86l-59.38-59.38c4.32-3.667 8.612-7.04 12.862-10.14zm-166.254 68.191 21.779-21.78 72.06.95-43.882 43.881-49.957-23.051zm-99.147 99.146 10.927-10.926 53.555 19.454-18.006 18.007-46.476-26.535zM90.352 319.75l47.579-.668-24.123 24.123-23.456-23.455zm128.624 128.621-23.455-23.453 24.122-24.123-.667 47.576zm69.805-43.705-26.534-46.477 18.006-18.006 19.455 53.555-10.927 10.928zm120.927-120.928-21.779 21.779-23.053-49.957 7.323-7.323 36.56-36.559.949 72.06zM184.915 414.311l-24.947-24.947 27.914-27.914-10.607-10.605-27.914 27.914-24.946-24.947 247.699-247.697a239.118 239.118 0 0 1 3.353-3.285l60.431 60.431a256.827 256.827 0 0 1-3.285 3.354c-.002-.002-210.237 210.233-247.698 247.696zm279.752-287.713-52.54-52.54c32.65-20.292 61.798-25.378 80.264-27.722-2.345 18.463-7.433 47.611-27.724 80.262z"/><path d="m231.79 318.315-10.608-10.607 123.516-123.516 10.608 10.607zM367.076 183.043l-10.605-10.608 16.014-16.01 10.605 10.609zM88.82 368.17l10.604 10.608-39.215 39.204-10.605-10.608zM56.11 493.25 45.505 482.64l41.803-41.791 10.605 10.608zM108.504 419.612l10.607 10.607-10.271 10.271-10.608-10.607zM29.901 427.102l9.637-9.637 10.607 10.607-9.637 9.637zM129.813 490.664l-10.605-10.608 39.214-39.203 10.605 10.608zM110.064 510.386 99.457 499.78l9.637-9.638 10.608 10.607z"/></svg>